# xmcd CD database file generated by Grip 3.2.0
# 
# Track frame offsets:
#       150
#       41257
#       70271
#       107887
#       149351
#       181443
#       207133
#       231163
# 
# Disc length: 3627 seconds
# 
# Revision: 2
# Processed by: cddbd v1.5.2PL0 Copyright (c) Steve Scherf et al.
# Submitted via: Grip 3.2.0
# 
DISCID=6f0e2908
DTITLE=Anat Cohen - Notes from the Village
DYEAR=2008
DGENRE=Jazz
TTITLE0=Washington Square Park
TTITLE1=Until You`re in Love Again
TTITLE2=Siboney
TTITLE3=After The Rain
TTITLE4=J Blues
TTITLE5=Lullaby for the Naive Ones
TTITLE6=A Change Is Gonna Come
TTITLE7=Jitterbug Waltz
EXTD=
EXTT0=
EXTT1=
EXTT2=
EXTT3=
EXTT4=
EXTT5=
EXTT6=
EXTT7=
PLAYORDER=
